<svg width="800px" height="800px" viewBox="0 -0.5 25 25" fill="none" xmlns="http://www.w3.org/2000/svg">
<path fill-rule="evenodd" clip-rule="evenodd" d="M5.50002 18.211V9.737C5.49724 9.30439 5.84541 8.9513 6.27802 8.948H9.38902C9.82162 8.9513 10.1698 9.30439 10.167 9.737V5.789C10.1642 5.35678 10.5118 5.00385 10.944 5H14.056C14.4886 5.0033 14.8368 5.35639 14.834 5.789V8.158C14.8312 7.72539 15.1794 7.3723 15.612 7.369H18.723C19.1552 7.37285 19.5028 7.72578 19.5 8.158V18.211C19.5028 18.6436 19.1546 18.9967 18.722 19H6.27802C5.84541 18.9967 5.49724 18.6436 5.50002 18.211V18.211Z" stroke="#000000" stroke-width="1.5" stroke-linecap="round" stroke-linejoin="round"/>
<path d="M9.41699 19C9.41699 19.4142 9.75278 19.75 10.167 19.75C10.5812 19.75 10.917 19.4142 10.917 19H9.41699ZM10.917 9.73696C10.917 9.32275 10.5812 8.98696 10.167 8.98696C9.75278 8.98696 9.41699 9.32275 9.41699 9.73696H10.917ZM14.083 19C14.083 19.4142 14.4188 19.75 14.833 19.75C15.2472 19.75 15.583 19.4142 15.583 19H14.083ZM15.583 8.15796C15.583 7.74375 15.2472 7.40796 14.833 7.40796C14.4188 7.40796 14.083 7.74375 14.083 8.15796H15.583ZM10.917 19V9.73696H9.41699V19H10.917ZM15.583 19V8.15796H14.083V19H15.583Z" fill="#000000"/>
</svg>